<?xml version="1.0" encoding="UTF-8" standalone="no"?>
<!DOCTYPE svg PUBLIC "-//W3C//DTD SVG 1.1//EN"
 "http://www.w3.org/Graphics/SVG/1.1/DTD/svg11.dtd">
<!-- Generated by graphviz version 2.38.0 (20140413.2041)
 -->
<!-- Title: %3 Pages: 1 -->
<svg width="1459pt" height="392pt"
 viewBox="0.00 0.00 1458.63 392.00" xmlns="http://www.w3.org/2000/svg" xmlns:xlink="http://www.w3.org/1999/xlink">
<g id="graph0" class="graph" transform="scale(1 1) rotate(0) translate(4 388)">
<title>%3</title>
<polygon fill="white" stroke="none" points="-4,4 -4,-388 1454.63,-388 1454.63,4 -4,4"/>
<!-- 0 -->
<g id="node1" class="node"><title>0</title>
<ellipse fill="none" stroke="black" cx="878.543" cy="-366" rx="39.7935" ry="18"/>
<text text-anchor="middle" x="878.543" y="-362.3" font-family="Times New Roman,serif" font-size="14.00">Age&lt;47</text>
</g>
<!-- 1 -->
<g id="node2" class="node"><title>1</title>
<ellipse fill="none" stroke="black" cx="685.543" cy="-279" rx="86.3847" ry="18"/>
<text text-anchor="middle" x="685.543" y="-275.3" font-family="Times New Roman,serif" font-size="14.00">Balance&lt;180848.469</text>
</g>
<!-- 0&#45;&gt;1 -->
<g id="edge1" class="edge"><title>0&#45;&gt;1</title>
<path fill="none" stroke="#0000ff" d="M850.89,-352.822C819.412,-338.958 767.538,-316.112 730.283,-299.704"/>
<polygon fill="#0000ff" stroke="#0000ff" points="731.233,-296.298 720.67,-295.471 728.411,-302.704 731.233,-296.298"/>
<text text-anchor="middle" x="829.043" y="-318.8" font-family="Times New Roman,serif" font-size="14.00">yes, missing</text>
</g>
<!-- 2 -->
<g id="node3" class="node"><title>2</title>
<ellipse fill="none" stroke="black" cx="996.543" cy="-279" rx="39.7935" ry="18"/>
<text text-anchor="middle" x="996.543" y="-275.3" font-family="Times New Roman,serif" font-size="14.00">Age&lt;72</text>
</g>
<!-- 0&#45;&gt;2 -->
<g id="edge2" class="edge"><title>0&#45;&gt;2</title>
<path fill="none" stroke="#ff0000" d="M898.828,-350.388C917.824,-336.704 946.406,-316.115 967.758,-300.735"/>
<polygon fill="#ff0000" stroke="#ff0000" points="970.059,-303.391 976.128,-294.706 965.968,-297.711 970.059,-303.391"/>
<text text-anchor="middle" x="953.043" y="-318.8" font-family="Times New Roman,serif" font-size="14.00">no</text>
</g>
<!-- 3 -->
<g id="node4" class="node"><title>3</title>
<ellipse fill="none" stroke="black" cx="452.543" cy="-192" rx="70.6878" ry="18"/>
<text text-anchor="middle" x="452.543" y="-188.3" font-family="Times New Roman,serif" font-size="14.00">Balance&lt;161488</text>
</g>
<!-- 1&#45;&gt;3 -->
<g id="edge3" class="edge"><title>1&#45;&gt;3</title>
<path fill="none" stroke="#0000ff" d="M644.691,-263.097C604.612,-248.476 543.49,-226.178 500.983,-210.672"/>
<polygon fill="#0000ff" stroke="#0000ff" points="502.002,-207.317 491.408,-207.178 499.603,-213.894 502.002,-207.317"/>
<text text-anchor="middle" x="618.043" y="-231.8" font-family="Times New Roman,serif" font-size="14.00">yes, missing</text>
</g>
<!-- 4 -->
<g id="node5" class="node"><title>4</title>
<ellipse fill="none" stroke="black" cx="685.543" cy="-192" rx="39.7935" ry="18"/>
<text text-anchor="middle" x="685.543" y="-188.3" font-family="Times New Roman,serif" font-size="14.00">Age&lt;37</text>
</g>
<!-- 1&#45;&gt;4 -->
<g id="edge4" class="edge"><title>1&#45;&gt;4</title>
<path fill="none" stroke="#ff0000" d="M685.543,-260.799C685.543,-249.163 685.543,-233.548 685.543,-220.237"/>
<polygon fill="#ff0000" stroke="#ff0000" points="689.043,-220.175 685.543,-210.175 682.043,-220.175 689.043,-220.175"/>
<text text-anchor="middle" x="693.043" y="-231.8" font-family="Times New Roman,serif" font-size="14.00">no</text>
</g>
<!-- 5 -->
<g id="node14" class="node"><title>5</title>
<ellipse fill="none" stroke="black" cx="996.543" cy="-192" rx="61.99" ry="18"/>
<text text-anchor="middle" x="996.543" y="-188.3" font-family="Times New Roman,serif" font-size="14.00">HasCrCard&lt;1</text>
</g>
<!-- 2&#45;&gt;5 -->
<g id="edge13" class="edge"><title>2&#45;&gt;5</title>
<path fill="none" stroke="#0000ff" d="M996.543,-260.799C996.543,-249.163 996.543,-233.548 996.543,-220.237"/>
<polygon fill="#0000ff" stroke="#0000ff" points="1000.04,-220.175 996.543,-210.175 993.043,-220.175 1000.04,-220.175"/>
<text text-anchor="middle" x="1031.04" y="-231.8" font-family="Times New Roman,serif" font-size="14.00">yes, missing</text>
</g>
<!-- 6 -->
<g id="node15" class="node"><title>6</title>
<ellipse fill="none" stroke="black" cx="1158.54" cy="-192" rx="82.5854" ry="18"/>
<text text-anchor="middle" x="1158.54" y="-188.3" font-family="Times New Roman,serif" font-size="14.00">leaf=&#45;0.0540032871</text>
</g>
<!-- 2&#45;&gt;6 -->
<g id="edge14" class="edge"><title>2&#45;&gt;6</title>
<path fill="none" stroke="#ff0000" d="M1023.45,-265.611C1037.32,-259.093 1054.45,-250.845 1069.54,-243 1087.03,-233.91 1106.11,-223.285 1122.11,-214.173"/>
<polygon fill="#ff0000" stroke="#ff0000" points="1124.19,-217.011 1131.13,-209.005 1120.71,-210.936 1124.19,-217.011"/>
<text text-anchor="middle" x="1105.04" y="-231.8" font-family="Times New Roman,serif" font-size="14.00">no</text>
</g>
<!-- 7 -->
<g id="node6" class="node"><title>7</title>
<ellipse fill="none" stroke="black" cx="266.543" cy="-105" rx="53.8905" ry="18"/>
<text text-anchor="middle" x="266.543" y="-101.3" font-family="Times New Roman,serif" font-size="14.00">Germany&lt;1</text>
</g>
<!-- 3&#45;&gt;7 -->
<g id="edge5" class="edge"><title>3&#45;&gt;7</title>
<path fill="none" stroke="#0000ff" d="M419.718,-175.999C388.069,-161.536 340.126,-139.627 306.322,-124.179"/>
<polygon fill="#0000ff" stroke="#0000ff" points="307.738,-120.978 297.188,-120.005 304.829,-127.345 307.738,-120.978"/>
<text text-anchor="middle" x="406.043" y="-144.8" font-family="Times New Roman,serif" font-size="14.00">yes, missing</text>
</g>
<!-- 8 -->
<g id="node7" class="node"><title>8</title>
<ellipse fill="none" stroke="black" cx="452.543" cy="-105" rx="81.4863" ry="18"/>
<text text-anchor="middle" x="452.543" y="-101.3" font-family="Times New Roman,serif" font-size="14.00">NumOfProducts&lt;2</text>
</g>
<!-- 3&#45;&gt;8 -->
<g id="edge6" class="edge"><title>3&#45;&gt;8</title>
<path fill="none" stroke="#ff0000" d="M452.543,-173.799C452.543,-162.163 452.543,-146.548 452.543,-133.237"/>
<polygon fill="#ff0000" stroke="#ff0000" points="456.043,-133.175 452.543,-123.175 449.043,-133.175 456.043,-133.175"/>
<text text-anchor="middle" x="460.043" y="-144.8" font-family="Times New Roman,serif" font-size="14.00">no</text>
</g>
<!-- 9 -->
<g id="node12" class="node"><title>9</title>
<ellipse fill="none" stroke="black" cx="655.543" cy="-105" rx="79.0865" ry="18"/>
<text text-anchor="middle" x="655.543" y="-101.3" font-family="Times New Roman,serif" font-size="14.00">leaf=0.0479384325</text>
</g>
<!-- 4&#45;&gt;9 -->
<g id="edge11" class="edge"><title>4&#45;&gt;9</title>
<path fill="none" stroke="#0000ff" d="M679.472,-173.799C675.324,-162.047 669.744,-146.238 665.016,-132.842"/>
<polygon fill="#0000ff" stroke="#0000ff" points="668.233,-131.44 661.605,-123.175 661.632,-133.77 668.233,-131.44"/>
<text text-anchor="middle" x="707.043" y="-144.8" font-family="Times New Roman,serif" font-size="14.00">yes, missing</text>
</g>
<!-- 10 -->
<g id="node13" class="node"><title>10</title>
<ellipse fill="none" stroke="black" cx="836.543" cy="-105" rx="83.6854" ry="18"/>
<text text-anchor="middle" x="836.543" y="-101.3" font-family="Times New Roman,serif" font-size="14.00">leaf=0.00922860578</text>
</g>
<!-- 4&#45;&gt;10 -->
<g id="edge12" class="edge"><title>4&#45;&gt;10</title>
<path fill="none" stroke="#ff0000" d="M709.469,-177.531C733.632,-163.93 771.294,-142.73 799.352,-126.935"/>
<polygon fill="#ff0000" stroke="#ff0000" points="801.098,-129.969 808.095,-122.014 797.664,-123.869 801.098,-129.969"/>
<text text-anchor="middle" x="778.043" y="-144.8" font-family="Times New Roman,serif" font-size="14.00">no</text>
</g>
<!-- 13 -->
<g id="node8" class="node"><title>13</title>
<ellipse fill="none" stroke="black" cx="82.5427" cy="-18" rx="82.5854" ry="18"/>
<text text-anchor="middle" x="82.5427" y="-14.3" font-family="Times New Roman,serif" font-size="14.00">leaf=&#45;0.0142851993</text>
</g>
<!-- 7&#45;&gt;13 -->
<g id="edge7" class="edge"><title>7&#45;&gt;13</title>
<path fill="none" stroke="#0000ff" d="M236.159,-89.964C205.929,-75.9993 159.274,-54.4466 125.31,-38.7564"/>
<polygon fill="#0000ff" stroke="#0000ff" points="126.636,-35.5141 116.091,-34.4976 123.701,-41.8688 126.636,-35.5141"/>
<text text-anchor="middle" x="221.043" y="-57.8" font-family="Times New Roman,serif" font-size="14.00">yes, missing</text>
</g>
<!-- 14 -->
<g id="node9" class="node"><title>14</title>
<ellipse fill="none" stroke="black" cx="266.543" cy="-18" rx="83.6854" ry="18"/>
<text text-anchor="middle" x="266.543" y="-14.3" font-family="Times New Roman,serif" font-size="14.00">leaf=0.00620928453</text>
</g>
<!-- 7&#45;&gt;14 -->
<g id="edge8" class="edge"><title>7&#45;&gt;14</title>
<path fill="none" stroke="#ff0000" d="M266.543,-86.799C266.543,-75.1626 266.543,-59.5479 266.543,-46.2368"/>
<polygon fill="#ff0000" stroke="#ff0000" points="270.043,-46.1754 266.543,-36.1754 263.043,-46.1755 270.043,-46.1754"/>
<text text-anchor="middle" x="274.043" y="-57.8" font-family="Times New Roman,serif" font-size="14.00">no</text>
</g>
<!-- 15 -->
<g id="node10" class="node"><title>15</title>
<ellipse fill="none" stroke="black" cx="446.543" cy="-18" rx="77.9862" ry="18"/>
<text text-anchor="middle" x="446.543" y="-14.3" font-family="Times New Roman,serif" font-size="14.00">leaf=&#45;0.057286758</text>
</g>
<!-- 8&#45;&gt;15 -->
<g id="edge9" class="edge"><title>8&#45;&gt;15</title>
<path fill="none" stroke="#0000ff" d="M451.328,-86.799C450.507,-75.1626 449.405,-59.5479 448.465,-46.2368"/>
<polygon fill="#0000ff" stroke="#0000ff" points="451.951,-45.9041 447.755,-36.1754 444.968,-46.3971 451.951,-45.9041"/>
<text text-anchor="middle" x="485.043" y="-57.8" font-family="Times New Roman,serif" font-size="14.00">yes, missing</text>
</g>
<!-- 16 -->
<g id="node11" class="node"><title>16</title>
<ellipse fill="none" stroke="black" cx="626.543" cy="-18" rx="83.6854" ry="18"/>
<text text-anchor="middle" x="626.543" y="-14.3" font-family="Times New Roman,serif" font-size="14.00">leaf=0.00309058814</text>
</g>
<!-- 8&#45;&gt;16 -->
<g id="edge10" class="edge"><title>8&#45;&gt;16</title>
<path fill="none" stroke="#ff0000" d="M484.457,-88.4097C512.731,-74.5976 554.191,-54.344 585.036,-39.2762"/>
<polygon fill="#ff0000" stroke="#ff0000" points="586.793,-42.3135 594.241,-34.7793 583.72,-36.0239 586.793,-42.3135"/>
<text text-anchor="middle" x="558.043" y="-57.8" font-family="Times New Roman,serif" font-size="14.00">no</text>
</g>
<!-- 11 -->
<g id="node16" class="node"><title>11</title>
<ellipse fill="none" stroke="black" cx="996.543" cy="-105" rx="46.2923" ry="18"/>
<text text-anchor="middle" x="996.543" y="-101.3" font-family="Times New Roman,serif" font-size="14.00">Tenure&lt;3</text>
</g>
<!-- 5&#45;&gt;11 -->
<g id="edge15" class="edge"><title>5&#45;&gt;11</title>
<path fill="none" stroke="#0000ff" d="M996.543,-173.799C996.543,-162.163 996.543,-146.548 996.543,-133.237"/>
<polygon fill="#0000ff" stroke="#0000ff" points="1000.04,-133.175 996.543,-123.175 993.043,-133.175 1000.04,-133.175"/>
<text text-anchor="middle" x="1031.04" y="-144.8" font-family="Times New Roman,serif" font-size="14.00">yes, missing</text>
</g>
<!-- 12 -->
<g id="node17" class="node"><title>12</title>
<ellipse fill="none" stroke="black" cx="1179.54" cy="-105" rx="46.2923" ry="18"/>
<text text-anchor="middle" x="1179.54" y="-101.3" font-family="Times New Roman,serif" font-size="14.00">Tenure&lt;4</text>
</g>
<!-- 5&#45;&gt;12 -->
<g id="edge16" class="edge"><title>5&#45;&gt;12</title>
<path fill="none" stroke="#ff0000" d="M1028,-176.388C1059.44,-161.786 1107.81,-139.32 1141.41,-123.711"/>
<polygon fill="#ff0000" stroke="#ff0000" points="1143.31,-126.691 1150.9,-119.304 1140.36,-120.342 1143.31,-126.691"/>
<text text-anchor="middle" x="1107.04" y="-144.8" font-family="Times New Roman,serif" font-size="14.00">no</text>
</g>
<!-- 17 -->
<g id="node18" class="node"><title>17</title>
<ellipse fill="none" stroke="black" cx="816.543" cy="-18" rx="88.2844" ry="18"/>
<text text-anchor="middle" x="816.543" y="-14.3" font-family="Times New Roman,serif" font-size="14.00">leaf=0.000684218423</text>
</g>
<!-- 11&#45;&gt;17 -->
<g id="edge17" class="edge"><title>11&#45;&gt;17</title>
<path fill="none" stroke="#0000ff" d="M968.418,-90.7188C939.135,-76.8907 892.913,-55.064 859.147,-39.1186"/>
<polygon fill="#0000ff" stroke="#0000ff" points="860.514,-35.8939 849.977,-34.7886 857.525,-42.2236 860.514,-35.8939"/>
<text text-anchor="middle" x="952.043" y="-57.8" font-family="Times New Roman,serif" font-size="14.00">yes, missing</text>
</g>
<!-- 18 -->
<g id="node19" class="node"><title>18</title>
<ellipse fill="none" stroke="black" cx="1002.54" cy="-18" rx="79.0865" ry="18"/>
<text text-anchor="middle" x="1002.54" y="-14.3" font-family="Times New Roman,serif" font-size="14.00">leaf=0.0415344946</text>
</g>
<!-- 11&#45;&gt;18 -->
<g id="edge18" class="edge"><title>11&#45;&gt;18</title>
<path fill="none" stroke="#ff0000" d="M997.757,-86.799C998.578,-75.1626 999.68,-59.5479 1000.62,-46.2368"/>
<polygon fill="#ff0000" stroke="#ff0000" points="1004.12,-46.3971 1001.33,-36.1754 997.135,-45.9041 1004.12,-46.3971"/>
<text text-anchor="middle" x="1008.04" y="-57.8" font-family="Times New Roman,serif" font-size="14.00">no</text>
</g>
<!-- 19 -->
<g id="node20" class="node"><title>19</title>
<ellipse fill="none" stroke="black" cx="1179.54" cy="-18" rx="79.0865" ry="18"/>
<text text-anchor="middle" x="1179.54" y="-14.3" font-family="Times New Roman,serif" font-size="14.00">leaf=0.0309566297</text>
</g>
<!-- 12&#45;&gt;19 -->
<g id="edge19" class="edge"><title>12&#45;&gt;19</title>
<path fill="none" stroke="#0000ff" d="M1179.54,-86.799C1179.54,-75.1626 1179.54,-59.5479 1179.54,-46.2368"/>
<polygon fill="#0000ff" stroke="#0000ff" points="1183.04,-46.1754 1179.54,-36.1754 1176.04,-46.1755 1183.04,-46.1754"/>
<text text-anchor="middle" x="1214.04" y="-57.8" font-family="Times New Roman,serif" font-size="14.00">yes, missing</text>
</g>
<!-- 20 -->
<g id="node21" class="node"><title>20</title>
<ellipse fill="none" stroke="black" cx="1363.54" cy="-18" rx="87.1846" ry="18"/>
<text text-anchor="middle" x="1363.54" y="-14.3" font-family="Times New Roman,serif" font-size="14.00">leaf=&#45;0.00832741987</text>
</g>
<!-- 12&#45;&gt;20 -->
<g id="edge20" class="edge"><title>12&#45;&gt;20</title>
<path fill="none" stroke="#ff0000" d="M1208.29,-90.7188C1238.32,-76.848 1285.77,-54.9292 1320.31,-38.9711"/>
<polygon fill="#ff0000" stroke="#ff0000" points="1322.08,-42.0109 1329.69,-34.6398 1319.14,-35.6562 1322.08,-42.0109"/>
<text text-anchor="middle" x="1291.04" y="-57.8" font-family="Times New Roman,serif" font-size="14.00">no</text>
</g>
</g>
</svg>
