<?xml version="1.0" encoding="UTF-8" standalone="no"?>
<!DOCTYPE svg PUBLIC "-//W3C//DTD SVG 1.1//EN"
 "http://www.w3.org/Graphics/SVG/1.1/DTD/svg11.dtd">
<!-- Generated by graphviz version 2.38.0 (20140413.2041)
 -->
<!-- Title: %3 Pages: 1 -->
<svg width="1798pt" height="392pt"
 viewBox="0.00 0.00 1797.54 392.00" xmlns="http://www.w3.org/2000/svg" xmlns:xlink="http://www.w3.org/1999/xlink">
<g id="graph0" class="graph" transform="scale(1 1) rotate(0) translate(4 388)">
<title>%3</title>
<polygon fill="white" stroke="none" points="-4,4 -4,-388 1793.54,-388 1793.54,4 -4,4"/>
<!-- 0 -->
<g id="node1" class="node"><title>0</title>
<ellipse fill="none" stroke="black" cx="851.993" cy="-366" rx="53.8905" ry="18"/>
<text text-anchor="middle" x="851.993" y="-362.3" font-family="Times New Roman,serif" font-size="14.00">Germany&lt;1</text>
</g>
<!-- 1 -->
<g id="node2" class="node"><title>1</title>
<ellipse fill="none" stroke="black" cx="694.993" cy="-279" rx="81.4863" ry="18"/>
<text text-anchor="middle" x="694.993" y="-275.3" font-family="Times New Roman,serif" font-size="14.00">IsActiveMember&lt;1</text>
</g>
<!-- 0&#45;&gt;1 -->
<g id="edge1" class="edge"><title>0&#45;&gt;1</title>
<path fill="none" stroke="#0000ff" d="M825.004,-350.388C799.688,-336.682 761.576,-316.048 733.153,-300.66"/>
<polygon fill="#0000ff" stroke="#0000ff" points="734.754,-297.546 724.293,-295.863 731.421,-303.702 734.754,-297.546"/>
<text text-anchor="middle" x="817.493" y="-318.8" font-family="Times New Roman,serif" font-size="14.00">yes, missing</text>
</g>
<!-- 2 -->
<g id="node3" class="node"><title>2</title>
<ellipse fill="none" stroke="black" cx="965.993" cy="-279" rx="81.4863" ry="18"/>
<text text-anchor="middle" x="965.993" y="-275.3" font-family="Times New Roman,serif" font-size="14.00">IsActiveMember&lt;1</text>
</g>
<!-- 0&#45;&gt;2 -->
<g id="edge2" class="edge"><title>0&#45;&gt;2</title>
<path fill="none" stroke="#ff0000" d="M873.168,-349.211C890.747,-336.104 915.97,-317.298 935.688,-302.596"/>
<polygon fill="#ff0000" stroke="#ff0000" points="937.839,-305.358 943.763,-296.575 933.654,-299.746 937.839,-305.358"/>
<text text-anchor="middle" x="923.493" y="-318.8" font-family="Times New Roman,serif" font-size="14.00">no</text>
</g>
<!-- 3 -->
<g id="node4" class="node"><title>3</title>
<ellipse fill="none" stroke="black" cx="431.993" cy="-192" rx="77.1866" ry="18"/>
<text text-anchor="middle" x="431.993" y="-188.3" font-family="Times New Roman,serif" font-size="14.00">Balance&lt;169828.5</text>
</g>
<!-- 1&#45;&gt;3 -->
<g id="edge3" class="edge"><title>1&#45;&gt;3</title>
<path fill="none" stroke="#0000ff" d="M650.973,-263.773C605.28,-249.005 533.798,-225.903 485.023,-210.139"/>
<polygon fill="#0000ff" stroke="#0000ff" points="485.874,-206.736 475.282,-206.991 483.721,-213.396 485.874,-206.736"/>
<text text-anchor="middle" x="614.493" y="-231.8" font-family="Times New Roman,serif" font-size="14.00">yes, missing</text>
</g>
<!-- 4 -->
<g id="node5" class="node"><title>4</title>
<ellipse fill="none" stroke="black" cx="694.993" cy="-192" rx="86.3847" ry="18"/>
<text text-anchor="middle" x="694.993" y="-188.3" font-family="Times New Roman,serif" font-size="14.00">Balance&lt;191822.969</text>
</g>
<!-- 1&#45;&gt;4 -->
<g id="edge4" class="edge"><title>1&#45;&gt;4</title>
<path fill="none" stroke="#ff0000" d="M694.993,-260.799C694.993,-249.163 694.993,-233.548 694.993,-220.237"/>
<polygon fill="#ff0000" stroke="#ff0000" points="698.493,-220.175 694.993,-210.175 691.493,-220.175 698.493,-220.175"/>
<text text-anchor="middle" x="702.493" y="-231.8" font-family="Times New Roman,serif" font-size="14.00">no</text>
</g>
<!-- 5 -->
<g id="node14" class="node"><title>5</title>
<ellipse fill="none" stroke="black" cx="965.993" cy="-192" rx="86.3847" ry="18"/>
<text text-anchor="middle" x="965.993" y="-188.3" font-family="Times New Roman,serif" font-size="14.00">Balance&lt;96795.4531</text>
</g>
<!-- 2&#45;&gt;5 -->
<g id="edge13" class="edge"><title>2&#45;&gt;5</title>
<path fill="none" stroke="#0000ff" d="M965.993,-260.799C965.993,-249.163 965.993,-233.548 965.993,-220.237"/>
<polygon fill="#0000ff" stroke="#0000ff" points="969.493,-220.175 965.993,-210.175 962.493,-220.175 969.493,-220.175"/>
<text text-anchor="middle" x="1000.49" y="-231.8" font-family="Times New Roman,serif" font-size="14.00">yes, missing</text>
</g>
<!-- 6 -->
<g id="node15" class="node"><title>6</title>
<ellipse fill="none" stroke="black" cx="1344.99" cy="-192" rx="73.387" ry="18"/>
<text text-anchor="middle" x="1344.99" y="-188.3" font-family="Times New Roman,serif" font-size="14.00">CreditScore&lt;460</text>
</g>
<!-- 2&#45;&gt;6 -->
<g id="edge14" class="edge"><title>2&#45;&gt;6</title>
<path fill="none" stroke="#ff0000" d="M1021.1,-265.64C1090.71,-250.029 1210.16,-223.239 1282.92,-206.922"/>
<polygon fill="#ff0000" stroke="#ff0000" points="1283.87,-210.295 1292.86,-204.691 1282.34,-203.464 1283.87,-210.295"/>
<text text-anchor="middle" x="1186.49" y="-231.8" font-family="Times New Roman,serif" font-size="14.00">no</text>
</g>
<!-- 7 -->
<g id="node6" class="node"><title>7</title>
<ellipse fill="none" stroke="black" cx="251.993" cy="-105" rx="47.3916" ry="18"/>
<text text-anchor="middle" x="251.993" y="-101.3" font-family="Times New Roman,serif" font-size="14.00">Gender&lt;1</text>
</g>
<!-- 3&#45;&gt;7 -->
<g id="edge5" class="edge"><title>3&#45;&gt;7</title>
<path fill="none" stroke="#0000ff" d="M399.396,-175.607C368.507,-161.02 322.133,-139.122 289.672,-123.793"/>
<polygon fill="#0000ff" stroke="#0000ff" points="291.031,-120.564 280.494,-119.459 288.042,-126.894 291.031,-120.564"/>
<text text-anchor="middle" x="387.493" y="-144.8" font-family="Times New Roman,serif" font-size="14.00">yes, missing</text>
</g>
<!-- 8 -->
<g id="node7" class="node"><title>8</title>
<ellipse fill="none" stroke="black" cx="431.993" cy="-105" rx="73.387" ry="18"/>
<text text-anchor="middle" x="431.993" y="-101.3" font-family="Times New Roman,serif" font-size="14.00">CreditScore&lt;604</text>
</g>
<!-- 3&#45;&gt;8 -->
<g id="edge6" class="edge"><title>3&#45;&gt;8</title>
<path fill="none" stroke="#ff0000" d="M431.993,-173.799C431.993,-162.163 431.993,-146.548 431.993,-133.237"/>
<polygon fill="#ff0000" stroke="#ff0000" points="435.493,-133.175 431.993,-123.175 428.493,-133.175 435.493,-133.175"/>
<text text-anchor="middle" x="439.493" y="-144.8" font-family="Times New Roman,serif" font-size="14.00">no</text>
</g>
<!-- 9 -->
<g id="node12" class="node"><title>9</title>
<ellipse fill="none" stroke="black" cx="601.993" cy="-105" rx="77.9862" ry="18"/>
<text text-anchor="middle" x="601.993" y="-101.3" font-family="Times New Roman,serif" font-size="14.00">leaf=&#45;0.157518074</text>
</g>
<!-- 4&#45;&gt;9 -->
<g id="edge11" class="edge"><title>4&#45;&gt;9</title>
<path fill="none" stroke="#0000ff" d="M676.619,-174.207C662.735,-161.517 643.493,-143.93 628.025,-129.793"/>
<polygon fill="#0000ff" stroke="#0000ff" points="630.071,-126.921 620.329,-122.758 625.349,-132.088 630.071,-126.921"/>
<text text-anchor="middle" x="689.493" y="-144.8" font-family="Times New Roman,serif" font-size="14.00">yes, missing</text>
</g>
<!-- 10 -->
<g id="node13" class="node"><title>10</title>
<ellipse fill="none" stroke="black" cx="776.993" cy="-105" rx="79.0865" ry="18"/>
<text text-anchor="middle" x="776.993" y="-101.3" font-family="Times New Roman,serif" font-size="14.00">leaf=0.0248750001</text>
</g>
<!-- 4&#45;&gt;10 -->
<g id="edge12" class="edge"><title>4&#45;&gt;10</title>
<path fill="none" stroke="#ff0000" d="M711.194,-174.207C723.323,-161.633 740.091,-144.252 753.664,-130.182"/>
<polygon fill="#ff0000" stroke="#ff0000" points="756.402,-132.385 760.826,-122.758 751.364,-127.525 756.402,-132.385"/>
<text text-anchor="middle" x="748.493" y="-144.8" font-family="Times New Roman,serif" font-size="14.00">no</text>
</g>
<!-- 15 -->
<g id="node8" class="node"><title>15</title>
<ellipse fill="none" stroke="black" cx="77.9931" cy="-18" rx="77.9862" ry="18"/>
<text text-anchor="middle" x="77.9931" y="-14.3" font-family="Times New Roman,serif" font-size="14.00">leaf=&#45;0.086863637</text>
</g>
<!-- 7&#45;&gt;15 -->
<g id="edge7" class="edge"><title>7&#45;&gt;15</title>
<path fill="none" stroke="#0000ff" d="M223.526,-90.4534C210.012,-83.9969 193.65,-76.1411 178.993,-69 158.981,-59.2494 136.807,-48.2895 118.345,-39.1213"/>
<polygon fill="#0000ff" stroke="#0000ff" points="119.847,-35.9593 109.334,-34.6423 116.731,-42.2276 119.847,-35.9593"/>
<text text-anchor="middle" x="213.493" y="-57.8" font-family="Times New Roman,serif" font-size="14.00">yes, missing</text>
</g>
<!-- 16 -->
<g id="node9" class="node"><title>16</title>
<ellipse fill="none" stroke="black" cx="251.993" cy="-18" rx="77.9862" ry="18"/>
<text text-anchor="middle" x="251.993" y="-14.3" font-family="Times New Roman,serif" font-size="14.00">leaf=&#45;0.130374059</text>
</g>
<!-- 7&#45;&gt;16 -->
<g id="edge8" class="edge"><title>7&#45;&gt;16</title>
<path fill="none" stroke="#ff0000" d="M251.993,-86.799C251.993,-75.1626 251.993,-59.5479 251.993,-46.2368"/>
<polygon fill="#ff0000" stroke="#ff0000" points="255.493,-46.1754 251.993,-36.1754 248.493,-46.1755 255.493,-46.1754"/>
<text text-anchor="middle" x="259.493" y="-57.8" font-family="Times New Roman,serif" font-size="14.00">no</text>
</g>
<!-- 17 -->
<g id="node10" class="node"><title>17</title>
<ellipse fill="none" stroke="black" cx="430.993" cy="-18" rx="82.5854" ry="18"/>
<text text-anchor="middle" x="430.993" y="-14.3" font-family="Times New Roman,serif" font-size="14.00">leaf=&#45;0.0357948728</text>
</g>
<!-- 8&#45;&gt;17 -->
<g id="edge9" class="edge"><title>8&#45;&gt;17</title>
<path fill="none" stroke="#0000ff" d="M431.791,-86.799C431.654,-75.1626 431.47,-59.5479 431.314,-46.2368"/>
<polygon fill="#0000ff" stroke="#0000ff" points="434.813,-46.1335 431.195,-36.1754 427.813,-46.216 434.813,-46.1335"/>
<text text-anchor="middle" x="466.493" y="-57.8" font-family="Times New Roman,serif" font-size="14.00">yes, missing</text>
</g>
<!-- 18 -->
<g id="node11" class="node"><title>18</title>
<ellipse fill="none" stroke="black" cx="610.993" cy="-18" rx="79.0865" ry="18"/>
<text text-anchor="middle" x="610.993" y="-14.3" font-family="Times New Roman,serif" font-size="14.00">leaf=0.0304406788</text>
</g>
<!-- 8&#45;&gt;18 -->
<g id="edge10" class="edge"><title>8&#45;&gt;18</title>
<path fill="none" stroke="#ff0000" d="M464.409,-88.6071C493.843,-74.6299 537.415,-53.9392 569.406,-38.7479"/>
<polygon fill="#ff0000" stroke="#ff0000" points="570.985,-41.873 578.517,-34.4217 567.982,-35.5497 570.985,-41.873"/>
<text text-anchor="middle" x="540.493" y="-57.8" font-family="Times New Roman,serif" font-size="14.00">no</text>
</g>
<!-- 11 -->
<g id="node16" class="node"><title>11</title>
<ellipse fill="none" stroke="black" cx="961.993" cy="-105" rx="86.3847" ry="18"/>
<text text-anchor="middle" x="961.993" y="-101.3" font-family="Times New Roman,serif" font-size="14.00">Balance&lt;90203.1719</text>
</g>
<!-- 5&#45;&gt;11 -->
<g id="edge15" class="edge"><title>5&#45;&gt;11</title>
<path fill="none" stroke="#0000ff" d="M965.184,-173.799C964.636,-162.163 963.901,-146.548 963.275,-133.237"/>
<polygon fill="#0000ff" stroke="#0000ff" points="966.768,-133 962.801,-123.175 959.775,-133.329 966.768,-133"/>
<text text-anchor="middle" x="999.493" y="-144.8" font-family="Times New Roman,serif" font-size="14.00">yes, missing</text>
</g>
<!-- 12 -->
<g id="node17" class="node"><title>12</title>
<ellipse fill="none" stroke="black" cx="1152.99" cy="-105" rx="86.3847" ry="18"/>
<text text-anchor="middle" x="1152.99" y="-101.3" font-family="Times New Roman,serif" font-size="14.00">Balance&lt;149237.031</text>
</g>
<!-- 5&#45;&gt;12 -->
<g id="edge16" class="edge"><title>5&#45;&gt;12</title>
<path fill="none" stroke="#ff0000" d="M1000.29,-175.41C1030.91,-161.494 1075.9,-141.041 1109.13,-125.939"/>
<polygon fill="#ff0000" stroke="#ff0000" points="1110.94,-128.96 1118.6,-121.635 1108.04,-122.587 1110.94,-128.96"/>
<text text-anchor="middle" x="1078.49" y="-144.8" font-family="Times New Roman,serif" font-size="14.00">no</text>
</g>
<!-- 13 -->
<g id="node22" class="node"><title>13</title>
<ellipse fill="none" stroke="black" cx="1344.99" cy="-105" rx="87.1846" ry="18"/>
<text text-anchor="middle" x="1344.99" y="-101.3" font-family="Times New Roman,serif" font-size="14.00">leaf=&#45;0.00593939377</text>
</g>
<!-- 6&#45;&gt;13 -->
<g id="edge21" class="edge"><title>6&#45;&gt;13</title>
<path fill="none" stroke="#0000ff" d="M1344.99,-173.799C1344.99,-162.163 1344.99,-146.548 1344.99,-133.237"/>
<polygon fill="#0000ff" stroke="#0000ff" points="1348.49,-133.175 1344.99,-123.175 1341.49,-133.175 1348.49,-133.175"/>
<text text-anchor="middle" x="1379.49" y="-144.8" font-family="Times New Roman,serif" font-size="14.00">yes, missing</text>
</g>
<!-- 14 -->
<g id="node23" class="node"><title>14</title>
<ellipse fill="none" stroke="black" cx="1536.99" cy="-105" rx="86.3847" ry="18"/>
<text text-anchor="middle" x="1536.99" y="-101.3" font-family="Times New Roman,serif" font-size="14.00">Balance&lt;96953.0625</text>
</g>
<!-- 6&#45;&gt;14 -->
<g id="edge22" class="edge"><title>6&#45;&gt;14</title>
<path fill="none" stroke="#ff0000" d="M1378.88,-175.999C1410.46,-162.015 1457.78,-141.07 1492.41,-125.735"/>
<polygon fill="#ff0000" stroke="#ff0000" points="1494.1,-128.818 1501.83,-121.569 1491.26,-122.417 1494.1,-128.818"/>
<text text-anchor="middle" x="1460.49" y="-144.8" font-family="Times New Roman,serif" font-size="14.00">no</text>
</g>
<!-- 19 -->
<g id="node18" class="node"><title>19</title>
<ellipse fill="none" stroke="black" cx="785.993" cy="-18" rx="77.9862" ry="18"/>
<text text-anchor="middle" x="785.993" y="-14.3" font-family="Times New Roman,serif" font-size="14.00">leaf=&#45;0.112458341</text>
</g>
<!-- 11&#45;&gt;19 -->
<g id="edge17" class="edge"><title>11&#45;&gt;19</title>
<path fill="none" stroke="#0000ff" d="M929.301,-88.2114C900.563,-74.3318 858.589,-54.0605 827.489,-39.0405"/>
<polygon fill="#0000ff" stroke="#0000ff" points="828.74,-35.7578 818.213,-34.5606 825.695,-42.0612 828.74,-35.7578"/>
<text text-anchor="middle" x="919.493" y="-57.8" font-family="Times New Roman,serif" font-size="14.00">yes, missing</text>
</g>
<!-- 20 -->
<g id="node19" class="node"><title>20</title>
<ellipse fill="none" stroke="black" cx="964.993" cy="-18" rx="82.5854" ry="18"/>
<text text-anchor="middle" x="964.993" y="-14.3" font-family="Times New Roman,serif" font-size="14.00">leaf=&#45;0.0366530642</text>
</g>
<!-- 11&#45;&gt;20 -->
<g id="edge18" class="edge"><title>11&#45;&gt;20</title>
<path fill="none" stroke="#ff0000" d="M962.6,-86.799C963.011,-75.1626 963.562,-59.5479 964.032,-46.2368"/>
<polygon fill="#ff0000" stroke="#ff0000" points="967.532,-46.2927 964.387,-36.1754 960.536,-46.0457 967.532,-46.2927"/>
<text text-anchor="middle" x="971.493" y="-57.8" font-family="Times New Roman,serif" font-size="14.00">no</text>
</g>
<!-- 21 -->
<g id="node20" class="node"><title>21</title>
<ellipse fill="none" stroke="black" cx="1152.99" cy="-18" rx="87.1846" ry="18"/>
<text text-anchor="middle" x="1152.99" y="-14.3" font-family="Times New Roman,serif" font-size="14.00">leaf=&#45;0.00181735156</text>
</g>
<!-- 12&#45;&gt;21 -->
<g id="edge19" class="edge"><title>12&#45;&gt;21</title>
<path fill="none" stroke="#0000ff" d="M1152.99,-86.799C1152.99,-75.1626 1152.99,-59.5479 1152.99,-46.2368"/>
<polygon fill="#0000ff" stroke="#0000ff" points="1156.49,-46.1754 1152.99,-36.1754 1149.49,-46.1755 1156.49,-46.1754"/>
<text text-anchor="middle" x="1187.49" y="-57.8" font-family="Times New Roman,serif" font-size="14.00">yes, missing</text>
</g>
<!-- 22 -->
<g id="node21" class="node"><title>22</title>
<ellipse fill="none" stroke="black" cx="1340.99" cy="-18" rx="82.5854" ry="18"/>
<text text-anchor="middle" x="1340.99" y="-14.3" font-family="Times New Roman,serif" font-size="14.00">leaf=&#45;0.0696179792</text>
</g>
<!-- 12&#45;&gt;22 -->
<g id="edge20" class="edge"><title>12&#45;&gt;22</title>
<path fill="none" stroke="#ff0000" d="M1187.48,-88.4097C1218.35,-74.4509 1263.77,-53.9128 1297.21,-38.7976"/>
<polygon fill="#ff0000" stroke="#ff0000" points="1299.06,-41.8005 1306.73,-34.4915 1296.18,-35.4221 1299.06,-41.8005"/>
<text text-anchor="middle" x="1266.49" y="-57.8" font-family="Times New Roman,serif" font-size="14.00">no</text>
</g>
<!-- 23 -->
<g id="node24" class="node"><title>23</title>
<ellipse fill="none" stroke="black" cx="1527.99" cy="-18" rx="77.9862" ry="18"/>
<text text-anchor="middle" x="1527.99" y="-14.3" font-family="Times New Roman,serif" font-size="14.00">leaf=&#45;0.137283593</text>
</g>
<!-- 14&#45;&gt;23 -->
<g id="edge23" class="edge"><title>14&#45;&gt;23</title>
<path fill="none" stroke="#0000ff" d="M1535.17,-86.799C1533.94,-75.1626 1532.29,-59.5479 1530.88,-46.2368"/>
<polygon fill="#0000ff" stroke="#0000ff" points="1534.35,-45.7513 1529.81,-36.1754 1527.38,-46.4884 1534.35,-45.7513"/>
<text text-anchor="middle" x="1568.49" y="-57.8" font-family="Times New Roman,serif" font-size="14.00">yes, missing</text>
</g>
<!-- 24 -->
<g id="node25" class="node"><title>24</title>
<ellipse fill="none" stroke="black" cx="1706.99" cy="-18" rx="82.5854" ry="18"/>
<text text-anchor="middle" x="1706.99" y="-14.3" font-family="Times New Roman,serif" font-size="14.00">leaf=&#45;0.0914898813</text>
</g>
<!-- 14&#45;&gt;24 -->
<g id="edge24" class="edge"><title>14&#45;&gt;24</title>
<path fill="none" stroke="#ff0000" d="M1568.57,-88.2114C1596.24,-74.3753 1636.62,-54.1875 1666.63,-39.1819"/>
<polygon fill="#ff0000" stroke="#ff0000" points="1668.21,-42.3068 1675.58,-34.7041 1665.08,-36.0458 1668.21,-42.3068"/>
<text text-anchor="middle" x="1640.49" y="-57.8" font-family="Times New Roman,serif" font-size="14.00">no</text>
</g>
</g>
</svg>
